<?xml version="1.0" encoding="utf-8"?>
<!-- Generator: Adobe Illustrator 23.0.5, SVG Export Plug-In . SVG Version: 6.00 Build 0)  -->
<svg version="1.1" id="Слой_1" xmlns="http://www.w3.org/2000/svg" xmlns:xlink="http://www.w3.org/1999/xlink" x="0px" y="0px"
	 viewBox="0 0 100 100" style="enable-background:new 0 0 100 100;" xml:space="preserve">
<style type="text/css">
	.st0{fill:none;stroke:#FFFFFF;stroke-width:3;stroke-miterlimit:10;}
	.st1{fill:#FFFFFF;}
	.st2{font-family:'GothamPro-Bold';}
	.st3{font-size:17px;}
	.st4{fill:#FFFFFF;stroke:#FFFFFF;stroke-miterlimit:10;}
</style>
<title>checkmark-circle</title>
<circle class="st0" cx="50" cy="50.9" r="49.1"/>
<text transform="matrix(1 0 0 1 7.3329 45.3706)" class="st1 st2 st3">СТРОЙКА</text>
<g transform="translate(0.000000,100.000000) scale(0.100000,-0.100000)">
	<path class="st4" d="M447,446.7c-11.2-4.1-4.6-16.2,15.8-28.2c27-16.2,78.4-69.7,78.4-81.7c0-6.2-29-38.2-95.4-105
		c-73.4-73.8-95.4-97.9-95.4-106.2c0-7.1,7.1-17,22-31.9C407.6,58.8,403,56.3,515,168.3c84.2,84.2,97.1,95.4,102.9,90.4
		c4.6-3.7,5.8-9.1,4.1-17.4c-2.5-10.4,0-14.9,17.8-32.8c28.6-28.6,36.1-27.8,72.2,7.9c24.1,24.1,28.2,30.7,28.2,42.7
		c0,20.7-29,49.4-50.2,49.4c-18.3,0-24.5,6.2-21.6,21.6c2.1,10.4-1.7,15.8-36.5,51.4c-42.3,43.6-57.7,52.7-99.2,59.3
		C498.4,446.3,453.6,449.2,447,446.7z M551.5,415.6c12.4-3.3,26.6-13.7,56.4-43.1c33.6-33.2,39.4-41.1,37.8-49.8
		c-2.9-14.9,17-34.8,34.4-34.8c9.1,0,17-4.1,27-14.5l14.1-14.5l-24.5-24.9L672.3,209l-13.7,13.3c-9.1,8.7-13.7,17-13.7,24.9
		c0,13.3-22,40.7-32.8,40.7c-4.1,0-10.8-3.7-14.9-8.3c-10.4-11.6-14.9-10.4-32.8,7.9c-15.4,15.8-15.8,16.6-9.1,25.7
		c15.8,22.4,1.7,55.6-39.4,92.5L493.5,426l20.7-2.9C525.8,421.4,542.4,418.1,551.5,415.6z M552.8,270l17.4-17.4l-80.1-80.1
		c-44-43.6-81.7-79.7-84.2-79.7c-2.1,0-11.6,7.5-20.3,16.6L369.4,126l80.5,80.9c44.4,44.4,81.7,80.9,83,80.9
		C534.1,287.8,543.2,279.9,552.8,270z"/>
</g>
</svg>
