<?xml version="1.0" encoding="utf-8"?>
<!-- Generator: Adobe Illustrator 23.0.5, SVG Export Plug-In . SVG Version: 6.00 Build 0)  -->
<svg version="1.1" id="Слой_1" xmlns="http://www.w3.org/2000/svg" xmlns:xlink="http://www.w3.org/1999/xlink" x="0px" y="0px"
	 viewBox="0 0 100 100" style="enable-background:new 0 0 100 100;" xml:space="preserve">
<style type="text/css">
	.st0{fill:none;stroke:#FFFFFF;stroke-width:3;stroke-miterlimit:10;}
	.st1{fill:#FFFFFF;fill-opacity:0;}
	.st2{fill:#FFFFFF;}
	.st3{font-family:'GothamPro-Medium';}
	.st4{font-size:20px;}
</style>
<title>checkmark-circle</title>
<circle class="st0" cx="50" cy="51.2" r="48.8"/>
<g id="Layer_2">
	<g id="checkmark-circle">
		<g id="checkmark-circle-2">
			<path class="st1" d="M31.3,51.7"/>
			<path class="st2" d="M48,70.9c-0.7-0.6-1.8-0.6-2.5,0s-0.7,1.8,0,2.4l5.2,5.1c0.3,0.3,0.8,0.5,1.2,0.5l0,0c0.5,0,0.9-0.2,1.3-0.6
				l12.2-13.5c0.6-0.7,0.5-1.8-0.3-2.4c-0.7-0.6-1.7-0.5-2.3,0.2L52,74.7L48,70.9z"/>
			<path class="st2" d="M67.7,70.4L67.7,70.4c-1,0-1.7,0.7-1.7,1.7c0,7.4-6.2,13.5-13.9,13.5l0,0c-7.7,0-13.9-6-13.9-13.5
				c0-3.5,1.5-7,4-9.6c2.6-2.6,6.2-4,9.9-4c1.1,0,2.2,0.1,3.3,0.4c0.9,0.3,1.9-0.2,2.2-1.1c0.3-0.9-0.3-1.9-1.3-2.1
				c-0.1,0-0.1,0-0.2-0.1c-1.4-0.3-2.7-0.5-4.1-0.5c-9.6,0.1-17.3,7.6-17.3,17c0,4.5,1.9,8.7,5.1,11.9c3.2,3.2,7.6,4.9,12.2,4.9l0,0
				c9.6,0,17.4-7.6,17.4-16.9C69.3,71.1,68.5,70.4,67.7,70.4z"/>
		</g>
	</g>
</g>
<text transform="matrix(1 0 0 1 20.889 45.1483)" class="st2 st3 st4">СДАН</text>
</svg>
