<?xml version="1.0" encoding="utf-8"?>
<!-- Generator: Adobe Illustrator 23.0.5, SVG Export Plug-In . SVG Version: 6.00 Build 0)  -->
<svg version="1.1" id="Слой_1" xmlns="http://www.w3.org/2000/svg" xmlns:xlink="http://www.w3.org/1999/xlink" x="0px" y="0px"
	 viewBox="0 0 485 417.1" style="enable-background:new 0 0 485 417.1;" xml:space="preserve">
<style type="text/css">
	.st0{fill:#FFFFFF;}
</style>
<g id="Layer_1">
</g>
<g id="Layer_2">
	<g>
		<g>
			<g>
				<path class="st0" d="M189.7,67.5c-1.3,0-2.5-0.3-3.7-1.1c-16.6-10.3-33.6-17.6-50.6-21.6c-3.8-0.9-6.1-4.7-5.2-8.4
					c0.9-3.8,4.7-6.1,8.4-5.2c18.5,4.4,36.9,12.2,54.8,23.3c3.3,2,4.3,6.4,2.3,9.6C194.3,66.3,192,67.5,189.7,67.5z"/>
			</g>
			<g>
				<path class="st0" d="M90.3,237.5c-0.5,0-0.9,0-1.4-0.1c-0.4-0.1-0.9-0.2-1.3-0.4c-0.4-0.2-0.8-0.4-1.2-0.6
					c-0.4-0.3-0.7-0.5-1.1-0.9c-1.3-1.3-2.1-3.1-2.1-5c0-0.5,0.1-0.9,0.1-1.4c0.1-0.4,0.2-0.9,0.4-1.3c0.2-0.4,0.4-0.8,0.6-1.2
					s0.6-0.7,0.9-1.1s0.7-0.6,1.1-0.9s0.8-0.5,1.2-0.6c0.4-0.2,0.9-0.3,1.3-0.4c2.3-0.5,4.7,0.3,6.3,1.9c0.3,0.3,0.6,0.7,0.9,1.1
					c0.3,0.4,0.5,0.8,0.6,1.2c0.2,0.4,0.3,0.9,0.4,1.3c0.1,0.5,0.1,0.9,0.1,1.4c0,1.8-0.8,3.6-2.1,5C94,236.8,92.2,237.5,90.3,237.5
					z"/>
			</g>
			<g>
				<path class="st0" d="M112.8,215c-1.8,0-3.6-0.7-4.9-2c-2.7-2.7-2.7-7.2,0-9.9L246,65c2.7-2.7,7.2-2.7,9.9,0
					c2.7,2.7,2.7,7.2,0,9.9L117.8,213C116.4,214.3,114.6,215,112.8,215z"/>
			</g>
			<g>
				<path class="st0" d="M58.1,376H22.9c-3.9,0-7-3.1-7-7v-35.3c0-3.9,3.1-7,7-7h55.2c3.1,0,5.9,2.1,6.7,5.1s-0.4,6.3-3.1,7.9
					C71.3,346,65.1,356.9,65.1,369C65.1,372.9,62,376,58.1,376z M29.9,362h21.7c1.2-7.7,4.2-15,8.7-21.3H29.9V362z"/>
			</g>
			<g>
				<path class="st0" d="M478,376h-25.6c-3.9,0-7-3.1-7-7c0-18.8-15.3-34.2-34.1-34.2s-34.2,15.3-34.2,34.2c0,3.9-3.1,7-7,7H140.4
					c-3.9,0-7-3.1-7-7c0-12.1-6.2-23-16.6-29.3c-2.7-1.6-4-4.8-3.1-7.9c0.8-3,3.6-5.1,6.7-5.1h217v-67.2c0-3.9,3.1-7,7-7s7,3.1,7,7
					v74.2c0,3.9-3.1,7-7,7H138.2c4.5,6.3,7.6,13.6,8.7,21.3h216.7c3.4-23.3,23.5-41.2,47.6-41.2c24.2,0,44.2,17.9,47.6,41.2H471
					V236.4l-39.2-58.3h-80.3v25.7c0,3.9-3.1,7-7,7s-7-3.1-7-7v-32.7c0-3.9,3.1-7,7-7h91.1c2.3,0,4.5,1.2,5.8,3.1l42.4,63.1
					c0.8,1.1,1.2,2.5,1.2,3.9V369C485,372.9,481.9,376,478,376z"/>
			</g>
			<g>
				<path class="st0" d="M344.5,237.4c-0.5,0-0.9,0-1.4-0.1c-0.5-0.1-0.9-0.2-1.3-0.4c-0.4-0.2-0.8-0.4-1.2-0.6
					c-0.4-0.3-0.7-0.5-1.1-0.9c-0.3-0.3-0.6-0.7-0.9-1.1c-0.3-0.4-0.5-0.8-0.6-1.2c-0.2-0.4-0.3-0.9-0.4-1.3s-0.1-0.9-0.1-1.4
					c0-0.5,0-0.9,0.1-1.4c0.1-0.5,0.2-0.9,0.4-1.3c0.2-0.4,0.4-0.8,0.6-1.2c0.3-0.4,0.5-0.7,0.9-1.1c0.3-0.3,0.7-0.6,1.1-0.9
					c0.4-0.3,0.8-0.5,1.2-0.6c0.4-0.2,0.9-0.3,1.3-0.4c2.3-0.5,4.7,0.3,6.3,1.9c1.3,1.3,2,3.1,2,5s-0.8,3.6-2,5
					c-0.3,0.3-0.7,0.6-1.1,0.9c-0.4,0.3-0.8,0.5-1.2,0.6c-0.4,0.2-0.9,0.3-1.3,0.4C345.4,237.3,345,237.4,344.5,237.4z"/>
			</g>
			<g>
				<path class="st0" d="M444.1,267.7h-65.6c-3.9,0-7-3.1-7-7v-55.6c0-3.9,3.1-7,7-7h39.1c2.3,0,4.5,1.2,5.8,3.1l26.6,39.5
					c0.8,1.2,1.2,2.5,1.2,3.9v16.1C451.1,264.5,447.9,267.7,444.1,267.7z M385.4,253.7h51.6v-6.9l-23.3-34.7h-28.3L385.4,253.7
					L385.4,253.7z"/>
			</g>
			<g>
				<path class="st0" d="M99.3,417.1c-26.5,0-48.2-21.6-48.2-48.2c0-16.8,8.9-32.6,23.3-41.3c7.5-4.5,16-6.9,24.8-6.9
					s17.3,2.4,24.8,6.9c14.4,8.7,23.4,24.5,23.4,41.3C147.4,395.5,125.8,417.1,99.3,417.1z M99.3,334.8c-6.2,0-12.3,1.7-17.6,4.9
					c-10.4,6.3-16.6,17.2-16.6,29.3c0,18.8,15.3,34.2,34.2,34.2s34.2-15.3,34.2-34.2c0-12.1-6.2-23-16.6-29.3
					C111.6,336.5,105.5,334.8,99.3,334.8z"/>
			</g>
			<g>
				<path class="st0" d="M99.3,386.9c-9.9,0-17.9-8-17.9-17.9c0-6.3,3.3-12.1,8.7-15.4c2.8-1.7,6-2.6,9.2-2.6s6.5,0.9,9.3,2.6
					c5.4,3.2,8.7,9.1,8.7,15.4C117.2,378.9,109.2,386.9,99.3,386.9z M99.3,365.1c-0.7,0-1.4,0.2-2,0.6c-1.2,0.7-1.9,2-1.9,3.4
					c0,2.2,1.8,3.9,3.9,3.9s3.9-1.8,3.9-3.9c0-1.4-0.7-2.6-1.9-3.4C100.7,365.2,100,365.1,99.3,365.1z"/>
			</g>
			<g>
				<path class="st0" d="M411.2,386.9c-9.9,0-17.9-8-17.9-17.9c0-6.3,3.3-12.1,8.7-15.4c2.8-1.7,6-2.6,9.2-2.6s6.5,0.9,9.3,2.6
					c5.4,3.2,8.7,9.1,8.7,15.4C429.2,378.9,421.1,386.9,411.2,386.9z M411.2,365.1c-0.7,0-1.4,0.2-2,0.6c-1.2,0.7-1.9,2-1.9,3.4
					c0,2.2,1.8,3.9,3.9,3.9s3.9-1.8,3.9-3.9c0-1.4-0.7-2.6-1.9-3.4C412.7,365.2,412,365.1,411.2,365.1z"/>
			</g>
			<g>
				<path class="st0" d="M411.3,417.1c-26.5,0-48.2-21.6-48.2-48.2s21.6-48.2,48.2-48.2c26.5,0,48.1,21.6,48.1,48.2
					S437.8,417.1,411.3,417.1z M411.3,334.8c-18.8,0-34.2,15.3-34.2,34.2s15.3,34.2,34.2,34.2c18.8,0,34.1-15.3,34.1-34.2
					S430.1,334.8,411.3,334.8z"/>
			</g>
			<g>
				<path class="st0" d="M41.7,336.9c-1.8,0-3.6-0.7-5-2c-2.7-2.7-2.7-7.2,0-9.9l54-54c2.7-2.7,7.2-2.7,9.9,0s2.7,7.2,0,9.9l-54,54
					C45.3,336.3,43.5,336.9,41.7,336.9z"/>
			</g>
			<g>
				<path class="st0" d="M344.8,336.9c-1.8,0-3.6-0.7-5-2l-51.7-51.7c-2.7-2.7-2.7-7.2,0-9.9c2.7-2.7,7.2-2.7,9.9,0l51.7,51.7
					c2.7,2.7,2.7,7.2,0,9.9C348.3,336.3,346.6,336.9,344.8,336.9z"/>
			</g>
			<g>
				<path class="st0" d="M183.9,320.8c-2.8,0-5.5-0.3-8.3-1c-39.2-9.1-78.5-31.9-110.7-64c-32.1-32.1-54.9-71.4-64-110.7
					c-2.9-12.4,1-25.8,10.1-35l99.1-99.1c9.1-9.1,22.5-13,35-10.1c39.2,9.1,78.5,31.9,110.7,64s54.9,71.4,64,110.7
					c2.9,12.4-1,25.8-10.1,35l-99.1,99.1C203.5,316.9,193.8,320.8,183.9,320.8z M136.9,14c-6.2,0-12.3,2.5-16.8,7L21,120.1
					c-5.8,5.8-8.2,14.1-6.4,21.9c8.6,36.7,30,73.6,60.3,104s67.2,51.7,103.9,60.3c7.8,1.8,16.2-0.6,21.9-6.4l99.1-99.1
					c5.8-5.8,8.2-14.1,6.4-21.9c-8.6-36.7-30-73.6-60.3-103.9S178.7,23.1,142,14.6C140.3,14.2,138.6,14,136.9,14z"/>
			</g>
		</g>
	</g>
</g>
</svg>
