<?xml version="1.0" encoding="UTF-8"?>
<!DOCTYPE svg PUBLIC "-//W3C//DTD SVG 1.1//EN" "http://www.w3.org/Graphics/SVG/1.1/DTD/svg11.dtd">
<!-- Creator: CorelDRAW 2017 -->
<svg xmlns="http://www.w3.org/2000/svg" xml:space="preserve" width="18mm" height="18mm" version="1.1" style="shape-rendering:geometricPrecision; text-rendering:geometricPrecision; image-rendering:optimizeQuality; fill-rule:evenodd; clip-rule:evenodd"
viewBox="0 0 1800 1800"
 xmlns:xlink="http://www.w3.org/1999/xlink">
 <defs>
  <style type="text/css">
   <![CDATA[
    .fil0 {fill:#335ebd}
   ]]>
  </style>
 </defs>
 <g id="Слой_x0020_1">
  <metadata id="CorelCorpID_0Corel-Layer"/>
  <path class="fil0" d="M370.38 271.38l-2.84 0.48c-11.03,44.63 29.87,67.27 56.75,86.29l0.02 0.01c11.55,8.18 16.27,13.71 24.85,24.08 11.25,-15.26 31.4,-32.5 56.47,-50.83 -49.53,-31.56 -100.91,-64.84 -135.25,-60.03zm-6.1 1101.55c10.18,32.77 16.33,49.48 46.07,72.77 0.85,-0.73 1.82,-1.58 2.9,-2.52l0.03 -0.04c22.29,-19.38 40.31,-35.5 58.02,-62.36 -5.33,-2.13 -11.27,-4.84 -17.09,-9.06 -28.95,1.05 -62.85,1.38 -89.93,1.21zm405.87 -1188.7c14.61,-3.84 29.86,5.79 34,21.43 4.11,15.65 -4.42,31.55 -19.01,35.4 -14.59,3.84 -29.84,-5.79 -33.99,-21.43 -4.12,-15.66 4.43,-31.56 19,-35.4zm-472.45 437.87c-6.27,6.88 -9.12,11.02 -13.82,18.19 -65.37,99.96 14.21,227.42 13.22,339.59 6.92,121.29 -62.78,352.7 6.38,363.87 36.91,0.6 85.22,2.01 122.41,1.13 -1.4,-1.02 -2.73,-2.13 -3.99,-3.32 -45.22,-28.97 12.57,-252.73 -1.91,-363.28 -12.77,-222.36 -73.95,-321.31 7.98,-354.29 -45.4,-1.3 -88.32,-0.8 -130.27,-1.89zm423.76 -469.19l-8.58 -32.01 27.5 -2.8 -12.2 -28.47 33.1 -8.86 3.66 30.75 25.22 -11.33 8.58 32.01 -27.51 2.8 12.16 28.29 -33.1 8.87 -3.62 -30.58 -25.21 11.33zm770.57 166.63c0.94,0.87 26.58,24.43 27.47,25.29 95.46,91.44 -5.7,156.02 -29.09,249.32l-139.4 0c4.17,-61.91 23.49,-95 39.8,-118.13 18.21,-25.83 38.4,-54.16 22.84,-78.94 24.78,-19.27 67.86,-40.34 75.97,-78.06 0.8,0.16 1.6,0.33 2.41,0.52zm-30.71 -48.16l2.84 0.48c11.03,44.63 -29.87,67.27 -56.75,86.29l-0.02 0.01c-11.55,8.18 -16.27,13.71 -24.85,24.08 -11.25,-15.26 -31.4,-32.5 -56.47,-50.83 49.53,-31.56 100.91,-64.84 135.25,-60.03zm6.1 1101.55c-10.18,32.77 -16.33,49.48 -46.07,72.77 -0.85,-0.73 -1.82,-1.58 -2.9,-2.52l-0.03 -0.04c-22.29,-19.38 -40.31,-35.5 -58.02,-62.36 5.33,-2.13 11.27,-4.84 17.09,-9.06 28.95,1.05 62.85,1.38 89.93,1.21zm-405.87 -1188.7c-14.61,-3.84 -29.86,5.79 -34,21.43 -4.11,15.65 4.42,31.55 19.01,35.4 14.59,3.84 29.84,-5.79 33.99,-21.43 4.12,-15.66 -4.43,-31.56 -19,-35.4zm109.02 192.34c74.71,-13.81 207.05,-141.3 277.92,-131.37 -35.49,-18.26 -66.93,-38.54 -94.31,-60.85 -37.72,-8.92 -117.69,39.66 -145.04,59.37 -27.55,19.85 -38.09,20.66 -38.09,20.66 26.19,-19.92 32.86,-40.84 39.93,-77.25 9.38,-47.88 16.64,-54.63 21.77,-56.32 17.31,-5.72 -50.25,-32.27 -62.22,38.75 -5.27,31.27 1.82,43.21 -7.7,45.05 -9.51,1.83 -4.47,-13.06 -11.35,-27.4 -6.88,-14.33 -31.56,-8.76 -45.37,15.24 -5.66,9.85 -7.91,21.36 -8.47,32.25 -0.4,7.65 0,14.46 0.78,22.03 -7.74,1.47 -66.45,9.61 -103.01,-22.37 8.86,-7.03 14.56,-17.98 14.56,-30.29 0,-14.21 -7.6,-26.62 -18.9,-33.26 10.87,-12.68 5.83,-37.97 -17.51,-38.72 1.72,8.23 -1.01,16.37 -7.54,20.24 -8.62,5.11 -20.59,0.84 -26.74,-9.54 -6.15,-10.37 -4.14,-22.92 4.48,-28.03 5.72,-3.38 12.91,-2.65 18.89,1.26 2.9,-5.07 7.44,-17.94 -10.27,-31.16 -9.83,-7.35 -17.79,-10.95 -21.45,-13.3 -7.56,-4.88 -12.9,-12.57 -15.08,-21.2 -2.18,8.63 -7.52,16.32 -15.08,21.2 -3.66,2.35 -11.62,5.95 -21.45,13.3 -17.71,13.22 -13.17,26.09 -10.27,31.16 5.98,-3.91 13.17,-4.64 18.89,-1.26 8.62,5.11 10.63,17.66 4.48,28.03 -6.15,10.38 -18.12,14.65 -26.74,9.54 -6.53,-3.87 -9.26,-12.01 -7.54,-20.24 -23.34,0.75 -28.38,26.04 -17.51,38.72 -11.3,6.64 -18.9,19.05 -18.9,33.26 0,12.31 5.7,23.26 14.56,30.29 -36.56,31.98 -95.27,23.84 -103.01,22.37 0.78,-7.57 1.18,-14.38 0.78,-22.03 -0.56,-10.89 -2.81,-22.4 -8.47,-32.25 -13.81,-24 -38.49,-29.57 -45.37,-15.24 -6.88,14.34 -1.84,29.23 -11.35,27.4 -9.52,-1.84 -2.43,-13.78 -7.7,-45.05 -11.97,-71.02 -79.53,-44.47 -62.22,-38.75 5.13,1.69 12.39,8.44 21.77,56.32 7.07,36.41 13.74,57.33 39.93,77.25 0,0 -10.54,-0.81 -38.09,-20.66 -27.35,-19.71 -107.32,-68.29 -145.04,-59.37 -27.38,22.31 -58.82,42.59 -94.31,60.85 70.87,-9.93 203.21,117.56 277.92,131.37 51.92,-48.43 146.51,-80.92 254.72,-81.24 108.21,0.32 202.8,32.81 254.72,81.24zm363.43 245.53c6.27,6.88 9.12,11.02 13.82,18.19 65.37,99.96 -14.21,227.42 -13.22,339.59 -6.92,121.29 62.78,352.7 -6.38,363.87 -36.91,0.6 -85.22,2.01 -122.41,1.13 1.4,-1.02 2.73,-2.13 3.99,-3.32 45.22,-28.97 -12.57,-252.73 1.91,-363.28 12.77,-222.36 73.95,-321.31 -7.98,-354.29 45.4,-1.3 88.32,-0.8 130.27,-1.89zm-618.15 794.78c13.69,-34.53 45.96,-69.24 87.05,-72.82 71.39,0 157.47,0 228.88,0 42.73,0.1 65.88,-13.83 69.47,-71.35l0 -305.34c-3.79,0.25 -9.31,1.4 -16.38,3.79 -7.57,2.57 -16.06,6.46 -24.92,12.03 -13.33,8.38 -26.36,15.57 -39.6,20.83 -15.17,6.03 -30.51,9.52 -46.54,9.48l-0.28 0c-16.03,-0.1 -31.18,-3.62 -46.05,-9.6 -12.86,-5.17 -25.76,-12.34 -39.08,-20.71 -7.89,-4.96 -15.93,-9.16 -23.87,-12.01 -6.77,-2.44 -13.32,-3.89 -19.36,-3.89 -6.26,-0.01 -12.91,1.41 -19.68,3.84 -7.75,2.78 -15.83,7 -23.87,12.06 -13.2,8.3 -26.13,15.45 -39.33,20.74 -15.02,6.02 -30.26,9.54 -46.28,9.57 -15.98,0.03 -31.28,-3.47 -46.44,-9.51 -13.23,-5.28 -26.22,-12.45 -39.5,-20.8 -7.84,-4.93 -15.8,-9.11 -23.61,-11.94 -6.77,-2.46 -13.29,-3.93 -19.24,-3.96 -6.05,-0.04 -12.76,1.42 -19.8,3.92 -8.28,2.94 -16.39,7.11 -24.14,11.98 -13.19,8.3 -26.13,15.45 -39.32,20.74 -15.02,6.02 -30.26,9.54 -46.27,9.57 -15.99,0.03 -31.29,-3.47 -46.45,-9.51 -13.22,-5.28 -26.22,-12.44 -39.5,-20.8 -8.86,-5.57 -17.36,-9.46 -24.93,-12.03 -7.06,-2.39 -12.57,-3.54 -16.36,-3.79l0 305.34c3.59,57.52 26.74,71.45 69.47,71.35 71.41,0 157.49,0 228.88,0 41.09,3.58 73.36,38.29 87.05,72.82zm194.39 -1263.97l8.58 -32.01 -27.5 -2.8 12.2 -28.47 -33.09 -8.86 -3.67 30.75 -25.22 -11.33 -8.58 32.01 27.51 2.8 -12.16 28.29 33.1 8.86 3.62 -30.57 25.21 11.33zm-206.71 1334.67l28.19 -0.06c156.48,-2.67 303.36,-27.99 379.03,-65.43 7.41,-3.19 12.59,-6.17 16,-8.97 3.26,-2.37 6.07,-5.34 8.27,-8.72 20.56,22.72 42.29,44.85 66.39,65.81 8.74,11.37 4.59,22.54 -11.48,33.27 -99.19,67.09 -284.13,107.65 -473.77,109.52l0 -0.1 -0.62 0 0 0.1 -6.65 -0.09 -0.25 0 0 0c-187.21,-2.77 -368.88,-43.16 -466.87,-109.43 -16.07,-10.73 -20.22,-21.9 -11.48,-33.27 24.1,-20.96 45.83,-43.09 66.39,-65.81 2.2,3.38 5.01,6.35 8.27,8.72 3.41,2.8 8.59,5.78 16,8.97 76.24,37.72 224.77,63.14 382.58,65.49zm-175.09 -1045.36l-17.95 0 -180.04 0 0 384.59c11.23,0.18 25.83,2.45 41.69,7.83 12.78,4.34 26.98,10.81 41.6,20.01 9.61,6.05 18.59,11.06 26.85,14.36 6.34,2.52 12.07,3.99 17.1,3.98 4.89,-0.01 10.57,-1.5 16.93,-4.04 8.17,-3.28 17.09,-8.28 26.65,-14.3 12.72,-8 26.02,-14.84 39.58,-19.66 14.82,-5.26 30.43,-8.31 46.68,-8.21 15.88,0.09 31.2,3.27 45.8,8.57 13.58,4.92 26.55,11.63 38.75,19.3 9.6,6.04 18.57,11.06 26.84,14.36 6.34,2.52 12.07,3.99 17.09,3.98 4.89,-0.01 10.58,-1.5 16.93,-4.04 8.18,-3.28 17.1,-8.28 26.66,-14.3 12.26,-7.7 25.41,-14.45 39.33,-19.42 14.9,-5.34 30.39,-8.48 46.24,-8.46 15.98,0.03 31.45,3.18 46.24,8.5 13.63,4.9 26.69,11.64 39,19.38 9.38,5.9 18.27,10.86 26.72,14.26 6.37,2.56 11.98,4.06 16.68,4.08l0.16 0c4.99,0.02 10.7,-1.44 17.04,-3.95 8.3,-3.3 17.3,-8.33 26.93,-14.39 14.63,-9.2 28.83,-15.67 41.61,-20.01 15.86,-5.39 30.46,-7.65 41.7,-7.83l0 -384.59 -158.06 0 -40.12 0 -374.63 0zm-27.69 -55.12l12.78 25.45 404.55 0 12.87 -25.45c-54.08,-31.87 -130.41,-51.82 -215.1,-52.06 -84.69,0.24 -161.02,20.19 -215.1,52.06zm-361.08 -67.56c-0.94,0.87 -26.58,24.43 -27.47,25.29 -95.46,91.44 5.7,156.02 29.09,249.32l139.4 0c-4.17,-61.91 -23.49,-95 -39.8,-118.13 -18.21,-25.83 -38.4,-54.16 -22.84,-78.94 -24.78,-19.27 -67.86,-40.34 -75.97,-78.06 -0.8,0.16 -1.6,0.33 -2.41,0.52zm346.44 211.7l28.95 32.12 39.64 -4.57 -2.96 42.56 31.33 23.91 -33.1 28.09 4.73 38.43 -43.9 -2.87 -24.69 30.39 -28.93 -32.09 -39.63 4.57 2.96 -42.57 -31.37 -23.95 33.13 -28.05 -4.72 -38.42 43.88 2.86 24.68 -30.41zm459.48 0l-28.95 32.12 -39.64 -4.57 2.96 42.56 -31.33 23.91 33.1 28.09 -4.73 38.43 43.9 -2.87 24.69 30.39 28.93 -32.09 39.63 4.57 -2.96 -42.57 31.37 -23.95 -33.13 -28.05 4.72 -38.42 -43.88 2.86 -24.68 -30.41zm-229.74 0.26l24.48 30.15 43.87 -2.86 -4.71 38.42 33.11 28.05 -31.35 23.95 2.95 42.57 -39.62 -4.57 -28.73 31.86 -28.73 -31.86 -39.62 4.57 2.95 -42.57 -31.35 -23.95 33.11 -28.05 -4.71 -38.42 43.87 2.86 24.48 -30.15z"/>
 </g>
</svg>
