<?xml version="1.0" encoding="utf-8"?>
<!-- Generator: Adobe Illustrator 23.0.5, SVG Export Plug-In . SVG Version: 6.00 Build 0)  -->
<svg version="1.1" id="Слой_1" xmlns="http://www.w3.org/2000/svg" xmlns:xlink="http://www.w3.org/1999/xlink" x="0px" y="0px"
	 viewBox="0 0 128 128" style="enable-background:new 0 0 128 128;" xml:space="preserve">
<style type="text/css">
	.st0{fill:#FFFFFF;}
</style>
<g>
	<path class="st0" d="M71,122V98.2c3.2-0.8,6.3-2.1,9-3.9v6.7h29V72H93.4c0.1-0.8,0.1-1.7,0.1-2.5c0-8.6-3.8-16.6-10-22.1L114,16.8
		l10,10v-5.7l-10-10L80.3,44.9c-0.9-0.6-1.8-1.1-2.7-1.6L114,6.8l10,10v-5.7l-10-10l-36,36c0.3-1.7,0.5-3.4,0.5-5.2
		c0-14.9-12.1-27-27-27s-27,12.1-27,27c0,0.1,0,0.2,0,0.3c-13.2,5.1-22,17.9-22,32.2C2.5,83.5,18,99,37,99h9v27h4V99h14
		c1,0,2-0.1,3-0.2V126h57v-4H71z M105,76v21H84v-5.8c4.3-4,7.4-9.2,8.8-15.2H105z M64,95H50v-9.1l18.9-9.4l-1.8-3.6L50,81.4V42h-4
		v19.4l-17.1-8.6l-1.8,3.6L46,65.9V95h-9C20.2,95,6.5,81.3,6.5,64.5c0-13.1,8.3-24.7,20.7-28.9l1.5-0.5l-0.1-1.5
		c0-0.5-0.1-1.1-0.1-1.6c0-12.7,10.3-23,23-23s23,10.3,23,23c0,3.8-0.9,7.5-2.7,10.8l-1.1,2l2.1,0.8c9.9,3.7,16.6,13.3,16.6,23.9
		C89.5,83.6,78.1,95,64,95z"/>
</g>
</svg>
