<?xml version="1.0" encoding="utf-8"?>
<!-- Generator: Adobe Illustrator 23.0.5, SVG Export Plug-In . SVG Version: 6.00 Build 0)  -->
<svg version="1.1" id="Слой_1" xmlns="http://www.w3.org/2000/svg" xmlns:xlink="http://www.w3.org/1999/xlink" x="0px" y="0px"
	 viewBox="0 0 22 22" style="enable-background:new 0 0 22 22;" xml:space="preserve">
<style type="text/css">
	.st0{fill:#FFFFFF;}
</style>
<path class="st0" d="M3,0C1.4,0,0,1.4,0,3v16c0,1.6,1.4,3,3,3h16c1.6,0,3-1.4,3-3V3c0-1.6-1.4-3-3-3H3z M16,3h3v3h-3V3z M11,7
	c2.2,0,4,1.8,4,4s-1.8,4-4,4s-4-1.8-4-4S8.8,7,11,7z M2,9h3.3C5.1,9.6,5,10.3,5,11c0,3.3,2.7,6,6,6s6-2.7,6-6c0-0.7-0.1-1.4-0.3-2
	H20v10c0,0.6-0.4,1-1,1H3c-0.6,0-1-0.4-1-1V9z"/>
</svg>
