<?xml version="1.0" encoding="utf-8"?>
<!-- Generator: Adobe Illustrator 23.0.5, SVG Export Plug-In . SVG Version: 6.00 Build 0)  -->
<svg version="1.1" id="Layer_1" xmlns="http://www.w3.org/2000/svg" xmlns:xlink="http://www.w3.org/1999/xlink" x="0px" y="0px"
	 viewBox="0 0 89.2 73.4" style="enable-background:new 0 0 89.2 73.4;" xml:space="preserve">
<style type="text/css">
	.st0{fill:#FFFFFF;}
	.st1{fill-rule:evenodd;clip-rule:evenodd;fill:#FFFFFF;}
</style>
<g id="XMLID_55_">
	<g id="XMLID_56_">
		<g id="XMLID_65_">
			<path id="XMLID_66_" class="st0" d="M88.9,8.9c-2.8,1.3-6,2.1-9,2.6c1.5-0.2,3.6-2.9,4.5-3.9c1.3-1.6,2.4-3.5,3-5.5
				c0.1-0.2,0.1-0.4,0-0.5c-0.2-0.1-0.3,0-0.5,0C83.5,3.4,80,4.8,76.2,5.7c-0.3,0.1-0.5,0-0.7-0.2c-0.3-0.4-0.6-0.7-0.9-1
				c-1.6-1.3-3.3-2.4-5.2-3.2c-2.5-1-5.3-1.5-8-1.3c-2.6,0.2-5.2,0.9-7.5,2.1s-4.4,2.9-6.1,5c-1.7,2.1-3,4.6-3.6,7.3
				c-0.6,2.6-0.6,5.1-0.2,7.7c0.1,0.4,0,0.5-0.4,0.4c-14.8-2.1-27-7.3-36.9-18.6c-0.4-0.5-0.7-0.5-1,0C1.4,10.4,3.5,20.8,8.9,26
				c0.7,0.7,1.5,1.4,2.3,2c-0.3,0.1-3.9-0.3-7.1-2c-0.4-0.3-0.6-0.1-0.7,0.4c0,0.7,0,1.3,0.1,2.1c0.8,6.6,5.4,12.7,11.6,15
				c0.7,0.3,1.6,0.6,2.4,0.7c-1.4,0.3-2.9,0.5-7,0.2C10,44.3,9.8,44.6,10,45c3,8.4,9.6,10.9,14.6,12.3c0.7,0.1,1.3,0.1,2,0.3
				c0,0.1-0.1,0.1-0.1,0.1c-1.6,2.5-7.3,4.4-10,5.3c-4.8,1.7-10.1,2.4-15.2,1.9c-0.8-0.1-1-0.1-1.2,0s0,0.3,0.2,0.5
				c1,0.7,2.1,1.3,3.2,1.9c3.2,1.7,6.6,3.1,10.1,4.1c18.2,5,38.8,1.3,52.5-12.3C76.8,48.5,80.6,33.8,80.6,19c0-0.6,0.7-0.9,1.1-1.2
				c2.8-2.1,5-4.6,7.1-7.4c0.5-0.6,0.4-1.2,0.4-1.4V8.9C89.2,8.7,89.3,8.7,88.9,8.9z"/>
		</g>
		<g id="XMLID_63_">
			<path id="XMLID_64_" class="st1" d="M26.5,73.3C34,73.3,26.8,73.3,26.5,73.3C27.5,73.3,26.4,73.3,26.5,73.3z"/>
		</g>
		<g id="XMLID_61_">
			<path id="XMLID_62_" class="st1" d="M26.5,73.3C26.4,73.3,25,73.3,26.5,73.3C26.5,73.3,26.2,73.3,26.5,73.3z"/>
		</g>
		<g id="XMLID_59_">
			<path id="XMLID_60_" class="st1" d="M29.5,73.4C29.5,73.2,31.1,73.4,29.5,73.4C29.5,73.3,29.7,73.4,29.5,73.4z"/>
		</g>
		<g id="XMLID_57_">
			<path id="XMLID_58_" class="st1" d="M61.1,0.2c-0.1,0.1-0.2,0.1-0.4,0C60.8,0.2,61,0.2,61.1,0.2z"/>
		</g>
	</g>
</g>
</svg>
