<?xml version="1.0" encoding="utf-8"?>
<!-- Generator: Adobe Illustrator 23.0.5, SVG Export Plug-In . SVG Version: 6.00 Build 0)  -->
<svg version="1.1" id="Social_Icons" xmlns="http://www.w3.org/2000/svg" xmlns:xlink="http://www.w3.org/1999/xlink" x="0px"
	 y="0px" viewBox="0 0 128 106.7" style="enable-background:new 0 0 128 106.7;" xml:space="preserve">
<style type="text/css">
	.st0{fill-rule:evenodd;clip-rule:evenodd;fill:#FFFFFF;}
</style>
<g id="_x37__stroke">
	<g id="Twitter">
		<path id="Twitter_1_" class="st0" d="M128,12.6c-4.7,2.1-9.8,3.6-15.1,4.2c5.4-3.3,9.6-8.6,11.5-14.9c-5.1,3.1-10.7,5.3-16.7,6.5
			C103,3.3,96.2,0,88.6,0C74.1,0,62.4,12.1,62.4,26.9c0,2.1,0.2,4.2,0.7,6.1C41.2,31.9,21.9,21.2,8.9,4.9c-2.3,4-3.6,8.6-3.6,13.6
			C5.4,27.8,10,36,17,40.9c-4.3-0.1-8.4-1.4-11.9-3.4v0.3c0,13.1,9.1,23.9,21.1,26.4c-2.2,0.6-4.5,0.9-6.9,0.9
			c-1.7,0-3.3-0.2-4.9-0.5c3.3,10.7,13,18.5,24.5,18.7c-9,7.2-20.3,11.5-32.6,11.5c-2.1,0-4.2-0.1-6.3-0.4
			c11.6,7.6,25.4,12.1,40.3,12.1c48.3,0,74.7-41,74.7-76.6c0-1.2,0-2.3-0.1-3.5C120,22.8,124.5,18,128,12.6"/>
	</g>
</g>
</svg>
