<?xml version="1.0" encoding="utf-8"?>
<!-- Generator: Adobe Illustrator 23.0.5, SVG Export Plug-In . SVG Version: 6.00 Build 0)  -->
<svg version="1.1"
	 id="svg2" xmlns:cc="http://creativecommons.org/ns#" xmlns:dc="http://purl.org/dc/elements/1.1/" xmlns:rdf="http://www.w3.org/1999/02/22-rdf-syntax-ns#" xmlns:svg="http://www.w3.org/2000/svg"
	 xmlns="http://www.w3.org/2000/svg" xmlns:xlink="http://www.w3.org/1999/xlink" x="0px" y="0px" viewBox="0 0 850.4 843.1"
	 style="enable-background:new 0 0 850.4 843.1;" xml:space="preserve">
<style type="text/css">
	.st0{fill-rule:evenodd;clip-rule:evenodd;fill:#009035;}
	.st1{fill-rule:evenodd;clip-rule:evenodd;fill:#001796;}
	.st2{fill-rule:evenodd;clip-rule:evenodd;fill:#172556;}
</style>
<g id="g28">
	<path id="path30" class="st0" d="M775,430.1c-64.1-202-406-376-675.4-247.6c-4.6,21.5-4,16.2-4.8,44.5
		C339.4,101.6,691.1,253,775,430.1z"/>
	<path id="path32" class="st0" d="M649.1,599.4C527.1,382.7,235.2,286,8.5,398.2c-4,18.8,3.5,39.8,9.8,65.9
		C173.6,332.5,507.7,396.5,649.1,599.4z"/>
	<path id="path34" class="st0" d="M487.1,671C356.2,532.6,168.3,485.9,63.7,590.2c-37.4,37.3,71.2,159.1,149.5,169.5
		c-29.2-19-101.5-57.2-101.5-118.7c0.1-50.6,69.3-78.4,130.5-73.7C318.6,573,415,607.7,487.1,671z"/>
	<path id="path36" class="st1" d="M828.9,443.4C667.6,557.9,346.2,331,274.7,154.1c-20.2-50,25.5-135,85.6-154.1
		c-90.5,16.6-161.1,42.6-178.1,109.5C124.9,335.2,672,641.5,828.9,443.4z"/>
	<path id="path38" class="st1" d="M768.2,642.1c-303.5,93.5-772.7-250-649.5-523.8c-28.1,25.8-72.9,87.3-78.3,136
		c-9.6,86.5,48.1,195.6,142,280.4C327.2,665.4,677.7,751.1,768.2,642.1L768.2,642.1z"/>
	<path id="path40" class="st1" d="M571.2,797.6c-97.4-1.3-185.9-16.2-274.1-56.3c-127.8-58.1-239-162.3-275.7-285.6
		c-6.4-21.4-14-72.2-18.4-103.9c-3.5,16.6-2,47.9-2.8,69.2c-6.7,179.6,125.9,297.9,285.1,357C328.1,793.9,482.1,838.2,571.2,797.6
		L571.2,797.6z"/>
	<path id="path42" class="st1" d="M764.8,218.2c-4.2,4.5-16,13.5-21.9,17.8c-101.4,66.4-273.8-81.5-245.7-144.3
		c9.4-21,56.4-23.1,75.6-12.3c-10.1,14.6-8.2,10-19.5,23.6c61.2-3.1,156.5,51.4,205.2,80.4C686.2,76.7,650.3,48.1,608.3,25.8
		c-2.2,3.9-10.7,23.2-14.5,21.4C545.2,23.4,443.1-9.4,397.4,11.7c-42.7,19.7-27.6,83.2-22.3,95c54.2,119.6,245.6,226.2,358.1,162.6
		C779.5,243,765,217.9,764.8,218.2z"/>
	<path id="path44" class="st2" d="M848.8,712.9c-35.2,35.6-59.2,43.6,1.7,82.8C775.9,778.7,722,740.4,848.8,712.9z"/>
	<path id="path46" class="st2" d="M752.8,695.6c-53.3,53.8-89.5,65.9,2.5,125.1C642.6,795.1,561.1,737.2,752.8,695.6z"/>
	<path id="path48" class="st2" d="M642.1,663.5c-78.6,46.5-158.6,78,28.7,179.6C476.6,793.9,369.8,702.3,642.1,663.5z"/>
	<path id="path50" class="st2" d="M457,707.7c-41.9,42.3-70.4,51.8,2,98.3C370.4,785.9,306.3,740.4,457,707.7z"/>
</g>
</svg>
