<?xml version="1.0" encoding="utf-8"?>
<!-- Generator: Adobe Illustrator 23.0.5, SVG Export Plug-In . SVG Version: 6.00 Build 0)  -->
<svg version="1.1"
	 id="svg2" xmlns:cc="http://creativecommons.org/ns#" xmlns:dc="http://purl.org/dc/elements/1.1/" xmlns:rdf="http://www.w3.org/1999/02/22-rdf-syntax-ns#" xmlns:svg="http://www.w3.org/2000/svg"
	 xmlns="http://www.w3.org/2000/svg" xmlns:xlink="http://www.w3.org/1999/xlink" x="0px" y="0px" viewBox="0 0 451.1 449.2"
	 style="enable-background:new 0 0 451.1 449.2;" xml:space="preserve">
<style type="text/css">
	.st0{fill-rule:evenodd;clip-rule:evenodd;fill:#6699FF;}
	.st1{fill-rule:evenodd;clip-rule:evenodd;fill:#3333FF;}
</style>
<g id="g28">
	<path id="path30" class="st0" d="M418.5,238.8C384.3,131.2,202.1,38.4,58.6,106.9c-2.4,11.4-2.1,8.6-2.6,23.7
		C186.4,63.7,373.8,144.4,418.5,238.8z"/>
	<path id="path32" class="st0" d="M351.4,329C286.4,213.5,130.8,162,10,221.8c-2.1,10,1.9,21.2,5.2,35.1
		C98,186.8,276,220.9,351.4,329z"/>
	<path id="path34" class="st0" d="M265,367.2c-69.7-73.7-169.8-98.7-225.6-43c-19.9,19.9,37.9,84.8,79.7,90.3
		c-15.5-10.2-54.1-30.5-54-63.4c0-27,36.9-41.8,69.5-39.3C175.3,314.9,226.7,333.4,265,367.2z"/>
	<path id="path36" class="st1" d="M447.2,245.9c-86,61-257.2-59.9-295.4-154.2c-10.8-26.6,13.6-72,45.6-82.1
		c-48.3,8.9-85.8,22.7-94.9,58.3C72,188.2,363.6,351.4,447.2,245.9z"/>
	<path id="path38" class="st1" d="M414.9,351.8C253.2,401.6,3.1,218.6,68.8,72.7c-15,13.7-38.8,46.5-41.7,72.5
		c-5.1,46.1,25.6,104.2,75.7,149.4C179.8,364.2,366.6,409.8,414.9,351.8L414.9,351.8z"/>
	<path id="path40" class="st1" d="M309.9,434.6c-51.9-0.7-99.1-8.7-146.1-30c-68.1-31-127.3-86.5-146.9-152.2
		C13.5,241,9.5,213.9,7.1,197c-1.9,8.8-1.1,25.5-1.5,36.9C2,329.6,72.7,392.6,157.5,424.2C180.3,432.6,262.4,456.3,309.9,434.6
		L309.9,434.6z"/>
	<path id="path42" class="st1" d="M413,125.9c-2.3,2.4-8.5,7.2-11.7,9.5c-54,35.4-145.9-43.4-131-76.9c5-11.2,30.1-12.3,40.3-6.5
		c-5.4,7.8-4.4,5.3-10.4,12.6c32.6-1.7,83.4,27.4,109.3,42.9c-38.5-56.9-57.7-72.1-80-84c-1.2,2.1-5.7,12.4-7.7,11.4
		C296,22.1,241.6,4.6,217.3,15.8c-22.8,10.5-14.7,44.3-11.9,50.6c28.9,63.7,130.9,120.5,190.8,86.6
		C420.9,139.1,413.2,125.7,413,125.9z"/>
</g>
</svg>
