<?xml version="1.0" encoding="utf-8"?>
<!-- Generator: Adobe Illustrator 23.0.5, SVG Export Plug-In . SVG Version: 6.00 Build 0)  -->
<svg version="1.1" id="Layer_1" xmlns="http://www.w3.org/2000/svg" xmlns:xlink="http://www.w3.org/1999/xlink" x="0px" y="0px"
	 viewBox="0 0 512 364" style="enable-background:new 0 0 512 364;" xml:space="preserve">
<style type="text/css">
	.st0{fill:#FFFFFF;}
</style>
<g>
	<g>
		<g>
			<path class="st0" d="M378.2,92.2c-0.6-1.1-1.3-2.1-2.3-3c-1-0.9-2-1.5-3.2-1.9l-58.9-21.2c-4.1-1.5-8.5-2.3-13.1-2.2
				c-4.6,0-8.9,0.9-13,2.5l-44.7,17.1c-3.1,1.2-6.3,2.6-9.3,4.2c-1,0.5-2,1.1-3,1.7c-3.4-1.8-6.9-3.4-10.6-4.8
				c-11.7-4.4-23.7-5.9-35.4-4.9l-30.1,2.6c-1.3,0.1-2.6,0.5-3.9,1.2c-1.2,0.7-2.3,1.7-3.1,2.8L80,182.6c-1.4,2-2.1,4.5-1.9,7.2
				c0.2,2.7,1.4,5,3.1,6.7l29.5,29.2c-1.6,3-2.6,6.3-2.9,9.8c-0.4,6.4,1.7,12.5,5.9,17.4c4.2,4.8,10.1,7.7,16.4,8.1c0.3,0,0.7,0,1,0
				c-2.6,8.5-0.5,18.1,6.3,24.5c4.1,3.9,9.3,6.1,14.9,6.5c-3.6,8.9-1.6,19.5,5.7,26.4c4.5,4.2,10.3,6.6,16.5,6.6
				c6.4,0,12.4-2.5,16.9-7c1.7,10.8,10.7,19.5,22.1,20.2c0.5,0,1.1,0.1,1.6,0.1c2.9,0,5.7-0.5,8.3-1.5c4.2,2.8,9.3,4.4,14.7,4.2
				c6.6-0.3,12.5-3.2,17-7.8l-16.2-16.2c0-0.4,0.1-0.7,0.1-1.1c0.2-3.2-0.2-6.2-1.2-9.1l33.1,33.1c4.2,1.7,8.7,2.6,13.5,2.4
				c9.5-0.4,17.9-4.9,23.9-11.8l3.3-3.8c0.3-0.4,0.5-0.8,0.7-1.2l-51-50.9c-1.3-1.3-1.4-3.5-0.3-4.8c1.2-1.4,3.2-1.4,4.5-0.1
				l60.7,60.5c3.3,1.2,6.8,1.7,10.5,1.6c8.3-0.3,15.8-4.3,21-10.4l8-9.3c1.8-2.1,2.9-5,2.8-8.2l-53.3-53.1c-1.3-1.3-1.4-3.5-0.3-4.8
				c1.2-1.4,3.2-1.4,4.5-0.1l53.5,53.4c2.2,0.6,4.5,0.9,6.9,0.8c6.8-0.3,12.9-3.5,17.2-8.5l2.2-2.5c4.3-5,6.8-11.7,6.6-19.1
				c-0.3-7.3-3.3-13.9-7.9-18.5L383.9,237l3.6,3.6l38.6-34.9c1.6-1.5,2.8-3.5,3.3-6c0.4-2.4,0-4.8-1-6.8L378.2,92.2z M130.8,250.6
				c-3.6-0.2-6.9-1.9-9.3-4.6c-2.4-2.7-3.6-6.2-3.3-9.9c0.5-7.1,6.4-12.7,13.5-12.7c0.3,0,0.6,0,0.9,0c3.6,0.2,6.9,1.9,9.3,4.6
				c2.4,2.7,3.6,6.2,3.3,9.9C144.7,245.3,138.3,251.1,130.8,250.6z M153.9,281.7c-3.5,0-6.8-1.3-9.3-3.7c-5.4-5.1-5.7-13.7-0.7-19.1
				c0.3-0.3,5.6-5.9,8.1-8.6l1.3-1.4c2.6-2.7,6.1-4.3,9.9-4.3c3.5,0,6.8,1.3,9.3,3.7c2.6,2.5,4.2,5.9,4.3,9.5
				c0.1,3.6-1.2,7.1-3.7,9.7l-3.8,4c-0.8,0.9-1.7,1.8-2.6,2.7c-0.1,0.2-0.3,0.3-0.4,0.5c-0.7,0.7-1.2,1.3-1.7,1.8
				c-0.3,0.3-0.5,0.6-0.8,0.8c-0.1,0.1-0.1,0.1-0.1,0.1C161.1,280.2,157.7,281.7,153.9,281.7z M184.3,310.4
				c-2.6,2.7-6.1,4.2-9.8,4.2c-3.5,0-6.8-1.3-9.3-3.7c-5.4-5.1-5.7-13.6-0.7-19c0.1-0.1,3.2-3.4,6.8-7.1c0,0,0,0,0,0l2.6-2.8
				c4.6-4.9,6.1-6.4,6.6-7c0.1-0.1,0.1-0.1,0.2-0.2l0,0c0.4-0.5,0.7-0.7,0.7-0.8c2.6-2.7,6.1-4.3,9.9-4.3c3.5,0,6.8,1.3,9.3,3.7
				c2.6,2.5,4.1,5.9,4.2,9.5c0.1,3.6-1.2,7.1-3.7,9.7C200.8,292.9,184.8,309.9,184.3,310.4z M228.6,315.1
				c-0.5,7.4-6.9,13.2-14.5,12.7c-7.5-0.5-13.2-7-12.7-14.5c0.5-7.1,6.4-12.7,13.5-12.7c0.3,0,0.6,0,0.9,0
				C223.4,301.2,229.1,307.7,228.6,315.1z M380.4,233.5L274.6,128l1.2-3c0.6-1.6,0.5-3.4-0.4-5c-0.9-1.6-2.4-2.5-4-2.5l-7.9-0.5
				l-8.6-0.5l-0.7,10.2c0,0.2-1.7,23.4-13.5,44.3c-12.1,21.5-28.1,28.9-30.6,29.4c-2.7,0.5-5.6,1-8,1c-1.6,0-2.9-0.2-4-0.7l-4-1.9
				c-1.7-0.8-3-2.2-3.6-4c-0.7-1.8-0.7-3.7,0-5.5l40.2-88.3l6.8-4.5l2.8-1.1h0L291,76.1c3.2-1.2,6.5-1.8,9.9-1.9l0.3,0
				c3.3,0,6.5,0.6,9.6,1.7l58.9,21.2l50.2,100.7L380.4,233.5z"/>
			<path class="st0" d="M437.6,27.8l-39.8,19.8c-5.7,2.9-10.4,7.9-12.5,14.4c-2.2,6.5-1.5,13.4,1.3,19.1l52.1,104.4
				c2.9,5.7,7.9,10.4,14.4,12.5c6.5,2.2,13.4,1.5,19.1-1.3l39.8-19.8L437.6,27.8z M472.1,177c-5.3,0-9.6-4.3-9.6-9.6
				c0-5.3,4.3-9.6,9.6-9.6c5.3,0,9.6,4.3,9.6,9.6C481.7,172.7,477.4,177,472.1,177z"/>
			<path class="st0" d="M142.4,59.5c-1.2-6.8-5-12.5-10.3-16.2L95.8,17.8L0,154.2l36.4,25.5c5.2,3.7,11.9,5.4,18.7,4.2
				c6.8-1.2,12.5-5,16.1-10.3l67.1-95.5C141.9,73,143.6,66.3,142.4,59.5z M50.3,152.1c-0.8,5.2-5.7,8.8-10.9,8
				c-5.2-0.8-8.8-5.7-8-10.9c0.8-5.2,5.7-8.8,10.9-8C47.5,142,51.1,146.9,50.3,152.1z"/>
		</g>
	</g>
</g>
</svg>
