<?xml version="1.0" encoding="utf-8"?>
<!-- Generator: Adobe Illustrator 23.0.5, SVG Export Plug-In . SVG Version: 6.00 Build 0)  -->
<svg version="1.1" id="Layer_1" xmlns="http://www.w3.org/2000/svg" xmlns:xlink="http://www.w3.org/1999/xlink" x="0px" y="0px"
	 viewBox="0 0 155.6 155.6" style="enable-background:new 0 0 155.6 155.6;" xml:space="preserve">
<style type="text/css">
	.st0{fill:#FFFFFF;}
</style>
<title>Wondicon - UI (Free)</title>
<path class="st0" d="M97.3,134.6c-0.2,0-0.4,0-0.7,0c-1.5-0.2-2.9-1.1-3.7-2.5l-11.7-20.3L69.5,110c-12.1-1.7-21.7-11.3-23.4-23.4
	l-1.7-11.7L24.1,63.2c-1.3-0.8-2.3-2.1-2.5-3.7c-0.2-1.5,0.3-3.1,1.4-4.2l17.7-17.7c0.9-0.9,2.2-1.5,3.5-1.5h33.3l24.8-24.8
	c6.8-6.9,16.4-10.3,26-9.4l19.5,1.8c2.4,0.2,4.3,2.1,4.5,4.5l1.8,19.5c0.9,9.6-2.5,19.2-9.4,26l-24.8,24.8v33.3
	c0,1.3-0.5,2.6-1.5,3.5l-17.7,17.7C99.9,134.1,98.6,134.6,97.3,134.6z M34.7,57.8l16.8,9.7c1.3,0.8,2.2,2.1,2.4,3.6L56,85.2
	c1.1,7.8,7.2,13.9,15,15l14.1,2.1c1.5,0.2,2.8,1.1,3.6,2.4l9.7,16.8l11.6-11.6V76.6c0-1.3,0.5-2.6,1.5-3.5l26.2-26.2
	c4.7-4.7,7.1-11.3,6.5-18l-1.4-15.3L127.3,12c-6.7-0.6-13.3,1.7-18,6.5L83.1,44.7c-0.9,0.9-2.2,1.5-3.5,1.5H46.3L34.7,57.8z"/>
<path class="st0" d="M7.8,153.3c-2.8,0-5-2.2-5-5c0-1.3,0.5-2.6,1.5-3.5l35.3-35.3c1.9-2,5.1-2,7.1-0.1c2,1.9,2,5.1,0.1,7.1
	c0,0-0.1,0.1-0.1,0.1l-35.3,35.3C10.4,152.8,9.2,153.3,7.8,153.3z"/>
<path class="st0" d="M7.4,112.8c-2.8,0-5-2.2-5-5c0-1.3,0.5-2.6,1.5-3.5L25,83.1c2-2,5.1-2,7.1,0c2,2,2,5.1,0,7.1L11,111.3
	C10,112.2,8.8,112.8,7.4,112.8z"/>
<path class="st0" d="M48,153.3c-2.8,0-5-2.2-5-5c0-1.3,0.5-2.6,1.5-3.5l21.1-21.1c1.9-2,5.1-2,7.1-0.1c2,1.9,2,5.1,0.1,7.1
	c0,0-0.1,0.1-0.1,0.1l-21.1,21.1C50.6,152.8,49.3,153.3,48,153.3z"/>
<path class="st0" d="M119.5,50.6c-7.7,0-14-6.3-14-14s6.3-14,14-14s14,6.3,14,14S127.3,50.6,119.5,50.6z M119.5,32.6
	c-2.2,0-4,1.8-4,4s1.8,4,4,4s4-1.8,4-4S121.7,32.6,119.5,32.6z"/>
</svg>
