<?xml version="1.0" encoding="utf-8"?>
<!-- Generator: Adobe Illustrator 23.0.5, SVG Export Plug-In . SVG Version: 6.00 Build 0)  -->
<svg version="1.1" id="Слой_1" xmlns="http://www.w3.org/2000/svg" xmlns:xlink="http://www.w3.org/1999/xlink" x="0px" y="0px"
	 viewBox="0 0 26 26" style="enable-background:new 0 0 26 26;" xml:space="preserve">
<style type="text/css">
	.st0{fill:#FFFFFF;}
	.st1{fill:none;}
</style>
<title></title>
<g id="Layer_2">
	<path class="st0" d="M13,26C5.8,26,0,20.2,0,13S5.8,0,13,0s13,5.8,13,13S20.2,26,13,26z M13,2C6.9,2,2,6.9,2,13s4.9,11,11,11
		s11-4.9,11-11S19.1,2,13,2z"/>
	<path class="st0" d="M18.5,19.5c-0.3,0-0.5-0.1-0.7-0.3l-5.5-5.5C12.1,13.5,12,13.3,12,13V5c0-0.6,0.4-1,1-1c0.6,0,1,0.4,1,1v7.6
		l5.2,5.2c0.4,0.4,0.4,1,0,1.4c0,0,0,0,0,0C19,19.4,18.8,19.5,18.5,19.5z"/>
</g>
<g id="frame">
	<rect x="-3" y="-3" class="st1" width="32" height="32"/>
</g>
</svg>
