<?xml version="1.0" encoding="utf-8"?>
<!-- Generator: Adobe Illustrator 23.0.5, SVG Export Plug-In . SVG Version: 6.00 Build 0)  -->
<svg version="1.1" id="Слой_1" xmlns="http://www.w3.org/2000/svg" xmlns:xlink="http://www.w3.org/1999/xlink" x="0px" y="0px"
	 viewBox="0 0 512 512" style="enable-background:new 0 0 512 512;" xml:space="preserve">
<style type="text/css">
	.st0{fill:#FFFFFF;}
</style>
<g id="Toolbox">
	<path class="st0" d="M120,240c-17.7,0-32,14.3-32,32s14.3,32,32,32s32-14.3,32-32S137.7,240,120,240z M120,288c-8.8,0-16-7.2-16-16
		s7.2-16,16-16s16,7.2,16,16S128.8,288,120,288z"/>
	<path class="st0" d="M495.2,276.4L464,214.1V120c0-4.4-3.6-8-8-8h-17c22.2-21.4,22.8-56.7,1.4-78.8c-6.1-6.3-13.5-11-21.7-13.9
		c-4.2-1.4-8.7,0.8-10.2,4.9c-0.3,0.8-0.4,1.7-0.4,2.6V64h-16V26.8c0-4.4-3.6-8-8-8c-0.9,0-1.8,0.2-2.6,0.4
		c-29.1,10.1-44.4,41.9-34.3,71c2.9,8.2,7.6,15.7,13.9,21.7h-81V80h40c4.4,0,8-3.6,8-8V24c0-4.4-3.6-8-8-8H192c-4.4,0-8,3.6-8,8v48
		c0,4.4,3.6,8,8,8h40v32H104c-4.4,0-8,3.6-8,8v88H56c-3,0-5.8,1.7-7.2,4.4l-32,64c-0.6,1.1-0.8,2.3-0.8,3.6v208c0,4.4,3.6,8,8,8h464
		c4.4,0,8-3.6,8-8V280C496,278.8,495.7,277.5,495.2,276.4z M475.1,272H424v-48h27.1L475.1,272z M448,208h-24v-80h24V208z M376,40v32
		c0,4.4,3.6,8,8,8h32c4.4,0,8-3.6,8-8V40c17.7,13.2,21.2,38.3,8,55.9c-4.7,6.3-11.2,11.1-18.7,13.7c-3.2,1.1-5.3,4.2-5.3,7.5V272
		h-16V117.2c0-3.4-2.1-6.4-5.3-7.5c-20.8-7.3-31.7-30.2-24.4-51C364.9,51.2,369.7,44.7,376,40z M280,160h96v48h-96V160z M280,224h96
		v48h-96V224z M376,128v16h-96v-16H376z M200,32h112v32H200V32z M264,80v192h-16V80H264z M144,208v-48h88v48H144z M112,128h120v16
		h-96c-4.4,0-8,3.6-8,8v56h-16V128z M208,480H32V281.9L60.9,224h118.1l28.9,57.9V480z M196.9,224H232v48h-11.1L196.9,224z M224,480
		V288h256v192H224z"/>
</g>
</svg>
