<?xml version="1.0" encoding="utf-8"?>
<!-- Generator: Adobe Illustrator 23.0.5, SVG Export Plug-In . SVG Version: 6.00 Build 0)  -->
<svg version="1.1" id="Слой_1" xmlns="http://www.w3.org/2000/svg" xmlns:xlink="http://www.w3.org/1999/xlink" x="0px" y="0px"
	 viewBox="0 0 512 512" style="enable-background:new 0 0 512 512;" xml:space="preserve">
<style type="text/css">
	.st0{fill:#FFFFFF;}
</style>
<path class="st0" d="M488,224c4.4,0,8-3.6,8-8v-64c0-4.4-3.6-8-8-8h-30.2c-2.5-8.1-5.7-16-9.7-23.5l21.3-21.3
	c3.1-3.1,3.1-8.2,0-11.3c0,0,0,0,0,0l-45.3-45.3c-3.2-3-8.1-3-11.3,0l-21.3,21.3c-7.5-4-15.4-7.2-23.5-9.7V24c0-4.4-3.6-8-8-8h-64
	c-4.4,0-8,3.6-8,8v30.1c-8.1,2.5-16,5.8-23.5,9.7l-21.3-21.3c-3.1-3.1-8.2-3.1-11.3,0c0,0,0,0,0,0l-7.8,7.8V24c0-4.4-3.6-8-8-8H24
	c-4.4,0-8,3.6-8,8v64c0,4.4,3.6,8,8,8h160.7c0.4,1.2,1,2.3,1.9,3.2l21.3,21.3c-4,7.5-7.2,15.4-9.7,23.5H168c-4.4,0-8,3.6-8,8v24h-32
	v-8c0-30.9-25.1-56-56-56s-56,25.1-56,56v272c0,30.9,25.1,56,56,56h240c13.3,0,24-10.7,24-24V352h24c4.4,0,8-3.6,8-8v-30.1
	c8.1-2.5,16-5.8,23.5-9.7l0.5,0.5v55c-35.6,17.7-50.1,60.9-32.4,96.5c7.8,15.7,21.1,28.1,37.4,34.7c4.1,1.7,8.8-0.3,10.4-4.4
	c0.4-0.9,0.6-2,0.6-3V432h32v51.4c0,4.4,3.6,8,8,8c1,0,2.1-0.2,3-0.6c36.9-14.9,54.6-56.9,39.7-93.8c-6.6-16.3-19-29.6-34.7-37.5
	v-65.9l13.4-13.4c3.1-3.1,3.1-8.2,0-11.3c0,0,0,0,0,0l-21.3-21.3c4-7.5,7.2-15.4,9.7-23.6L488,224z M32,32h16v24h16V32h16v24h16V32
	h16v24h16V32h16v24h16V32h16v24h16V32h16v34.4L194.4,80H32V32z M32,168c0-22.1,17.9-40,40-40s40,17.9,40,40v232.8
	c-21.6-22.1-57-22.5-79.1-0.9c-0.3,0.3-0.6,0.6-0.9,0.9V168z M320,472c0,4.4-3.6,8-8,8H72c-22.1,0-40-17.9-40-40s17.9-40,40-40
	s40,17.9,40,40c0,4.4,3.6,8,8,8s8-3.6,8-8V192h32v24c0,4.4,3.6,8,8,8h30.2c2.5,8.1,5.7,16,9.7,23.5l-21.3,21.3
	c-3.1,3.1-3.1,8.2,0,11.3c0,0,0,0,0,0l45.3,45.3c3.2,3,8.1,3,11.3,0l21.3-21.3c7.5,4,15.4,7.2,23.5,9.7V344c0,4.4,3.6,8,8,8h24V472z
	 M445,372.1c28.7,11.6,42.5,44.3,30.9,72.9c-4.1,10.1-11,18.7-19.9,24.9v-46c0-4.4-3.6-8-8-8h-48c-4.4,0-8,3.6-8,8v46
	c-25.4-17.7-31.6-52.6-13.9-78c6.2-8.9,14.9-15.8,24.9-19.9c3-1.2,5-4.2,5-7.4v-44.2l4.8,4.9c3.1,3.1,8.2,3.1,11.3,0c0,0,0,0,0,0
	l15.8-15.8v55.1C440,368,442,370.9,445,372.1L445,372.1z M444.1,214c-2.8,10.8-7.1,21.2-12.8,30.9c-1.9,3.1-1.3,7.1,1.2,9.7
	l19.9,19.9l-34,34l-19.9-19.9c-2.6-2.6-6.6-3.1-9.7-1.2c-9.6,5.7-20,10-30.8,12.8c-3.5,0.9-6,4.1-6,7.8V336h-48v-28.2
	c0-3.7-2.5-6.8-6-7.8c-10.8-2.8-21.2-7.1-30.8-12.8c-3.1-1.9-7.1-1.4-9.7,1.2l-19.9,19.9l-34-34l19.9-19.9c2.6-2.6,3.1-6.6,1.2-9.7
	c-5.7-9.6-10-20-12.8-30.9c-0.9-3.5-4.1-6-7.8-6H176v-48h28.2c3.7,0,6.8-2.5,7.8-6c2.8-10.8,7.1-21.2,12.8-30.9
	c1.9-3.1,1.3-7.1-1.2-9.7l-19.9-19.9l34-34l19.9,19.9c2.6,2.6,6.6,3.1,9.7,1.2c9.6-5.7,20-10,30.8-12.8c3.5-0.9,6-4.1,6-7.7V32h48
	v28.2c0,3.7,2.5,6.8,6,7.8c10.8,2.8,21.2,7.1,30.8,12.8c3.1,1.9,7.1,1.4,9.7-1.2l19.9-19.9l34,34l-19.9,19.9
	c-2.6,2.6-3.1,6.6-1.2,9.7c5.7,9.6,10,20,12.8,30.9c0.9,3.5,4.1,6,7.8,6H480v48h-28.2C448.2,208,445,210.5,444.1,214L444.1,214z"/>
<path class="st0" d="M328,96c-48.6,0-88,39.4-88,88s39.4,88,88,88s88-39.4,88-88C415.9,135.4,376.6,96.1,328,96z M328,256
	c-39.8,0-72-32.2-72-72s32.2-72,72-72s72,32.2,72,72C400,223.7,367.7,256,328,256z"/>
<path class="st0" d="M328,128c-30.9,0-56,25.1-56,56s25.1,56,56,56s56-25.1,56-56C384,153.1,358.9,128,328,128z M328,224
	c-22.1,0-40-17.9-40-40s17.9-40,40-40s40,17.9,40,40C368,206.1,350.1,224,328,224z"/>
<path class="st0" d="M160,368h32v16h-32V368z"/>
<path class="st0" d="M208,368h80v16h-80V368z"/>
<path class="st0" d="M160,400h32v16h-32V400z"/>
<path class="st0" d="M208,400h80v16h-80V400z"/>
<path class="st0" d="M160,432h32v16h-32V432z"/>
<path class="st0" d="M208,432h80v16h-80V432z"/>
</svg>
