<?xml version="1.0" encoding="utf-8"?>
<!-- Generator: Adobe Illustrator 23.0.5, SVG Export Plug-In . SVG Version: 6.00 Build 0)  -->
<svg version="1.1" id="Слой_1" xmlns="http://www.w3.org/2000/svg" xmlns:xlink="http://www.w3.org/1999/xlink" x="0px" y="0px"
	 viewBox="0 0 97.6 97.3" style="enable-background:new 0 0 97.6 97.3;" xml:space="preserve">
<style type="text/css">
	.st0{fill:#FFFFFF;}
</style>
<g transform="translate(0.000000,100.000000) scale(0.100000,-0.100000)">
	<path class="st0" d="M89.6,971.7c-4-9,12-35,40-66c103-114,184-306,211-495l7-49l-39,60c-74,111-208,225-266,225c-45,0-43-25,7-83
		c103-120,163-263,172-411c7-114,11-126,36-126c20,0,20,3,16,103c-7,125-29,214-79,314l-38,76l30-29c49-47,125-167,148-235
		c12-35,24-91,27-124c8-93,12-105,34-105c19,0,20,7,20,108c0,231-48,465-132,637l-29,60l31-35c124-139,220-433,220-670
		c0-81,6-100,31-100c17,0,19,8,19,83c0,173,34,345,92,467c28,58,113,155,182,208c25,20,14,37-28,40c-89,8-216-90-279-216l-34-69
		l-44,96c-67,147-164,266-271,334C139.6,990.7,96.6,991.7,89.6,971.7z"/>
	<path class="st0" d="M856.6,600.7c-80-60-141-136-191-237c-49-101-70-181-70-269c0-60,2-68,19-68c23,0,31,19,31,77
		c0,118,85,310,174,392c26,24,26,23-9-53c-46-98-75-227-75-333c0-76,2-83,20-83c23,0,27,14,34,125c9,143,62,289,143,393
		C1015.6,651.7,968.6,685.7,856.6,600.7z"/>
</g>
</svg>
